<svg xmlns="http://www.w3.org/2000/svg" width="400" height="120" viewBox="0 0 400 120" role="img" aria-label="dygeoprivacyp2p">
<title>dygeoprivacyp2p: Dynamic geoprivacy model based on DGGS in P2P environments</title>
<style>
  text { font-family: -apple-system,BlinkMacSystemFont,'Segoe UI','Noto Sans',Helvetica,Arial,sans-serif; }
  .name { font-size: 14px; font-weight: 600; fill: #4493f8; }
  .pill { font-size: 12px; font-weight: 500; fill: #9198a1; }
  .desc { font-size: 12px; fill: #9198a1; }
  .meta { font-size: 12px; fill: #9198a1; }
</style>
<rect x="0.5" y="0.5" width="399" height="119" rx="6" fill="#0d1117" stroke="#3d444d"/>
<path transform="translate(16 18)" fill="#9198a1" d="M2 2.5A2.5 2.5 0 0 1 4.5 0h8.75a.75.75 0 0 1 .75.75v12.5a.75.75 0 0 1-.75.75h-2.5a.75.75 0 0 1 0-1.5h1.75v-2h-8a1 1 0 0 0-.714 1.7.75.75 0 1 1-1.072 1.05A2.495 2.495 0 0 1 2 11.5Zm10.5-1h-8a1 1 0 0 0-1 1v6.708A2.486 2.486 0 0 1 4.5 9h8ZM5 12.25a.25.25 0 0 1 .25-.25h3.5a.25.25 0 0 1 .25.25v3.25a.25.25 0 0 1-.4.2l-1.45-1.087a.249.249 0 0 0-.3 0L5.4 15.7a.25.25 0 0 1-.4-.2Z"/>
<text x="40" y="31" class="name">dygeoprivacyp2p</text>
<rect x="338" y="18.5" width="46" height="18" rx="9" fill="none" stroke="#3d444d"/>
<text x="361" y="31.5" text-anchor="middle" class="pill">Public</text>
<text x="16" y="62" class="desc">Dynamic geoprivacy model based on DGGS in P2P environments</text>
<circle cx="22" cy="98" r="6" fill="#e34c26"/><text x="32" y="102" class="meta">HTML</text>
</svg>
